<svg width="2217" height="2222" viewBox="0 0 2217 2222" fill="none" xmlns="http://www.w3.org/2000/svg">
<rect x="728" y="1177" width="15" height="3" fill="#C4C4C4"/>
<rect x="1464" y="32" width="15" height="2" fill="#C4C4C4"/>
<rect width="667" height="1042" rx="20" fill="#3B3B3B"/>
<rect x="739" y="1180" width="667" height="1042" rx="20" fill="#3B3B3B"/>
<rect x="1479" width="667" height="942" rx="20" fill="#3C3C3C"/>
<rect x="1476" y="1058" width="741" height="942" rx="20" fill="#3C3C3C"/>
<rect x="20" y="1236" width="667" height="942" rx="20" fill="#3C3C3C"/>
<rect x="45" y="38" width="465" height="64" rx="32" fill="#4A4A4A"/>
<rect x="784" y="1218" width="465" height="64" rx="32" fill="#4A4A4A"/>
<rect x="726" y="3" width="681" height="64" rx="32" fill="#3B3B3B"/>
<rect x="38" y="220" width="465" height="66" rx="33" fill="#4A4A4A"/>
<rect x="777" y="1400" width="465" height="66" rx="33" fill="#4A4A4A"/>
<rect x="38" y="720" width="465" height="66" rx="33" fill="#4A4A4A"/>
<rect x="777" y="1900" width="465" height="66" rx="33" fill="#4A4A4A"/>
<rect x="1523" y="497" width="573" height="45" rx="22.5" fill="#4A4A4A"/>
<rect x="1728" y="1443" width="448" height="45" rx="22.5" fill="#4A4A4A"/>
<rect x="1731" y="1670" width="448" height="45" rx="22.5" fill="#4A4A4A"/>
<rect x="1731" y="1733" width="448" height="45" rx="22.5" fill="#4A4A4A"/>
<rect x="1728" y="1799" width="448" height="45" rx="22.5" fill="#4A4A4A"/>
<rect x="64" y="1733" width="573" height="45" rx="22.5" fill="#4A4A4A"/>
<rect x="1523" y="583" width="465" height="45" rx="22.5" fill="#4A4A4A"/>
<rect x="1728" y="1527" width="260" height="45" rx="22.5" fill="#4A4A4A"/>
<rect x="64" y="1819" width="465" height="45" rx="22.5" fill="#4A4A4A"/>
<rect x="1523" y="411" width="187" height="46" rx="23" fill="#4A4A4A"/>
<rect x="64" y="1647" width="187" height="46" rx="23" fill="#4A4A4A"/>
<rect x="1909" y="853" width="187" height="46" rx="23" fill="#4A4A4A"/>
<rect x="1988" y="1912" width="187" height="46" rx="23" fill="#4A4A4A"/>
<rect x="450" y="2089" width="187" height="46" rx="23" fill="#4A4A4A"/>
<rect x="1703" y="853" width="187" height="46" rx="23" fill="#4A4A4A"/>
<rect x="1746" y="1920" width="187" height="46" rx="23" fill="#4A4A4A"/>
<rect x="244" y="2089" width="187" height="46" rx="23" fill="#4A4A4A"/>
<rect x="38" y="129" width="300" height="64" rx="32" fill="#4A4A4A"/>
<rect x="777" y="1309" width="300" height="64" rx="32" fill="#4A4A4A"/>
<rect x="38" y="354" width="585" height="339" rx="28" fill="#4A4A4A"/>
<rect x="777" y="1534" width="585" height="339" rx="28" fill="#4A4A4A"/>
<path d="M1479 20C1479 8.95431 1487.95 0 1499 0H2126C2137.05 0 2146 8.95431 2146 20V338H1479V20Z" fill="#4A4A4A"/>
<path d="M1660 1062H2197C2205.84 1062 2213 1069.16 2213 1078V1392H1660V1062Z" fill="#3B3B3B" stroke="#4A4A4A" stroke-width="8"/>
<path d="M1476 1078C1476 1066.95 1484.95 1058 1496 1058H1676V1996H1496C1484.95 1996 1476 1987.05 1476 1976V1078Z" fill="#4A4A4A"/>
<path d="M20 1256C20 1244.95 28.9543 1236 40 1236H667C678.046 1236 687 1244.95 687 1256V1574H20V1256Z" fill="#4A4A4A"/>
<rect x="42" y="841" width="313" height="331" rx="24" fill="#4A4A4A" stroke="url(#paint0_linear)" stroke-width="8"/>
<rect x="393" y="841" width="313" height="331" rx="24" fill="#4A4A4A" stroke="#616161" stroke-width="8"/>
<rect x="550" y="35" width="73" height="67" rx="33.5" fill="#4A4A4A"/>
<rect x="1289" y="1215" width="73" height="67" rx="33.5" fill="#4A4A4A"/>
<rect x="736" y="86.9812" width="667" height="1042" rx="20" transform="rotate(-0.170186 736 86.9812)" fill="#3B3B3B"/>
<rect x="741.318" y="193.966" width="657" height="930" transform="rotate(-0.170186 741.318 193.966)" fill="#4A4A4A" stroke="#3B3B3B" stroke-width="10"/>
<rect x="752.074" y="111.934" width="374" height="59" rx="29.5" transform="rotate(-0.170186 752.074 111.934)" fill="#4A4A4A"/>
<rect x="768.65" y="305.885" width="374" height="59" rx="29.5" transform="rotate(-0.170186 768.65 305.885)" fill="#585858"/>
<rect x="1057.12" y="800.031" width="316" height="48" rx="24" transform="rotate(-0.170186 1057.12 800.031)" fill="#585858"/>
<rect x="1057.32" y="868.03" width="219" height="48" rx="24" transform="rotate(-0.170186 1057.32 868.03)" fill="#585858"/>
<rect x="1063.8" y="1028.01" width="123" height="59" rx="29.5" transform="rotate(-0.170186 1063.8 1028.01)" fill="#585858"/>
<rect x="1250.8" y="1027.46" width="123" height="59" rx="29.5" transform="rotate(-0.170186 1250.8 1027.46)" fill="#A5A5A5"/>
<rect x="767.935" y="401.888" width="533" height="59" rx="29.5" transform="rotate(-0.170186 767.935 401.888)" fill="#585858"/>
<rect x="769.221" y="497.884" width="507" height="59" rx="29.5" transform="rotate(-0.170186 769.221 497.884)" fill="#585858"/>
<rect x="768.589" y="621.887" width="604" height="59" rx="29.5" transform="rotate(-0.170186 768.589 621.887)" fill="#585858"/>
<rect x="769.812" y="696.883" width="240" height="59" rx="29.5" transform="rotate(-0.170186 769.812 696.883)" fill="#585858"/>
<rect x="773.13" y="803.874" width="256" height="280" rx="6" transform="rotate(-0.170186 773.13 803.874)" fill="#585858" stroke="#6C6C6C" stroke-width="8"/>
<path d="M1629.5 1182.5C1629.5 1210.62 1606.26 1233.5 1577.5 1233.5C1548.74 1233.5 1525.5 1210.62 1525.5 1182.5C1525.5 1154.38 1548.74 1131.5 1577.5 1131.5C1606.26 1131.5 1629.5 1154.38 1629.5 1182.5Z" fill="#4A4A4A" stroke="#3B3B3B" stroke-width="5"/>
<defs>
<linearGradient id="paint0_linear" x1="198.5" y1="837" x2="198.5" y2="1176" gradientUnits="userSpaceOnUse">
<stop stop-color="#7B7979"/>
<stop offset="1" stop-color="white" stop-opacity="0"/>
</linearGradient>
</defs>
</svg>
