<svg width="667" height="942" viewBox="0 0 667 942" fill="none" xmlns="http://www.w3.org/2000/svg">
<rect width="667" height="942" rx="20" fill="#3C3C3C"/>
<rect x="90" y="489" width="509" height="50" rx="25" fill="#4A4A4A"/>
<rect x="90" y="582" width="448" height="50" rx="25" fill="#4A4A4A"/>
<rect x="90" y="395" width="187" height="50" rx="25" fill="#F26C4F"/>
<rect x="430" y="853" width="187" height="46" rx="23" fill="white"/>
<rect x="224" y="853" width="187" height="46" rx="23" fill="#4A4A4A"/>
<path d="M0 20C0 8.95431 8.9543 0 20 0H647C658.046 0 667 8.95431 667 20V338H0V20Z" fill="#4A4A4A"/>
<path d="M18.7415 62.8182L28.2912 79.7443V89H33.7884V79.7443L43.3381 62.8182H37.1378L31.1676 74.0938H30.9119L24.9418 62.8182H18.7415ZM51.13 89.3835C55.9879 89.3835 59.2607 87.0185 60.0277 83.375L54.9908 83.0426C54.4411 84.5384 53.0348 85.3182 51.2195 85.3182C48.4964 85.3182 46.7706 83.5156 46.7706 80.5881V80.5753H60.1428V79.0795C60.1428 72.4062 56.103 69.108 50.9126 69.108C45.1342 69.108 41.3885 73.2116 41.3885 79.2713C41.3885 85.4972 45.0831 89.3835 51.13 89.3835ZM46.7706 77.2003C46.8857 74.9631 48.5859 73.1733 51.0021 73.1733C53.3672 73.1733 55.0036 74.8608 55.0163 77.2003H46.7706ZM69.1428 62.8182H63.6967V89H69.1428V62.8182ZM78.9513 62.8182H73.5053V89H78.9513V62.8182ZM92.1861 89.3835C98.1435 89.3835 101.851 85.3054 101.851 79.2585C101.851 73.1733 98.1435 69.108 92.1861 69.108C86.2287 69.108 82.5213 73.1733 82.5213 79.2585C82.5213 85.3054 86.2287 89.3835 92.1861 89.3835ZM92.2116 85.1648C89.4631 85.1648 88.0568 82.6463 88.0568 79.2202C88.0568 75.794 89.4631 73.2628 92.2116 73.2628C94.9091 73.2628 96.3153 75.794 96.3153 79.2202C96.3153 82.6463 94.9091 85.1648 92.2116 85.1648ZM111.311 85.4205H106.811L106.747 86.8523C106.594 90.3295 105.597 93.8963 105.226 95.392H108.754C109.368 93.8452 110.825 90.2145 111.17 86.8267L111.311 85.4205ZM128.007 89L129.95 83.0298H139.398L141.341 89H147.273L138.247 62.8182H131.114L122.075 89H128.007ZM131.357 78.7088L134.578 68.8011H134.783L138.004 78.7088H131.357ZM150.322 89H155.768V77.2131C155.768 75.0398 157.148 73.5952 158.964 73.5952C160.754 73.5952 161.955 74.8224 161.955 76.7528V89H167.235V77.0085C167.235 74.9759 168.398 73.5952 170.38 73.5952C172.119 73.5952 173.423 74.6818 173.423 76.8679V89H178.856V75.794C178.856 71.5369 176.325 69.108 172.668 69.108C169.792 69.108 167.555 70.5781 166.749 72.8281H166.545C165.918 70.5526 163.911 69.108 161.214 69.108C158.567 69.108 156.56 70.5142 155.742 72.8281H155.512V69.3636H150.322V89ZM214.693 71.9844C213.964 65.9375 209.387 62.4602 203.328 62.4602C196.412 62.4602 191.132 67.3438 191.132 75.9091C191.132 84.4489 196.322 89.358 203.328 89.358C210.039 89.358 214.092 84.8963 214.693 80.0767L209.093 80.0511C208.569 82.8509 206.37 84.4616 203.417 84.4616C199.441 84.4616 196.744 81.5085 196.744 75.9091C196.744 70.4631 199.403 67.3565 203.456 67.3565C206.485 67.3565 208.672 69.108 209.093 71.9844H214.693ZM224.006 77.6477C224.019 75.1165 225.566 73.6335 227.79 73.6335C230.002 73.6335 231.306 75.0526 231.293 77.4688V89H236.739V76.4972C236.752 71.8949 234.042 69.108 229.951 69.108C226.972 69.108 224.978 70.5142 224.083 72.8281H223.853V62.8182H218.56V89H224.006V77.6477ZM246.624 89.3707C249.526 89.3707 251.406 88.1051 252.364 86.277H252.518V89H257.683V75.7557C257.683 71.0767 253.719 69.108 249.347 69.108C244.643 69.108 241.549 71.358 240.795 74.9375L245.832 75.3466C246.202 74.0426 247.366 73.0838 249.322 73.0838C251.175 73.0838 252.237 74.017 252.237 75.6278V75.7045C252.237 76.9702 250.894 77.1364 247.481 77.4688C243.594 77.8267 240.104 79.1307 240.104 83.5156C240.104 87.402 242.879 89.3707 246.624 89.3707ZM248.184 85.6122C246.509 85.6122 245.308 84.8324 245.308 83.3366C245.308 81.8026 246.573 81.0483 248.491 80.7798C249.68 80.6136 251.623 80.3324 252.275 79.8977V81.9815C252.275 84.0398 250.575 85.6122 248.184 85.6122ZM261.908 89H267.354V77.8906C267.354 75.4744 269.118 73.8125 271.521 73.8125C272.276 73.8125 273.311 73.9403 273.822 74.1065V69.2741C273.337 69.1591 272.659 69.0824 272.109 69.0824C269.911 69.0824 268.108 70.3608 267.392 72.7898H267.188V69.3636H261.908V89ZM282.084 62.8182H276.638V89H282.084V62.8182ZM295.396 89.3835C300.254 89.3835 303.526 87.0185 304.293 83.375L299.256 83.0426C298.707 84.5384 297.3 85.3182 295.485 85.3182C292.762 85.3182 291.036 83.5156 291.036 80.5881V80.5753H304.408V79.0795C304.408 72.4062 300.369 69.108 295.178 69.108C289.4 69.108 285.654 73.2116 285.654 79.2713C285.654 85.4972 289.349 89.3835 295.396 89.3835ZM291.036 77.2003C291.151 74.9631 292.852 73.1733 295.268 73.1733C297.633 73.1733 299.269 74.8608 299.282 77.2003H291.036ZM324.3 74.9631C323.815 71.3452 320.9 69.108 315.94 69.108C310.915 69.108 307.604 71.4347 307.617 75.2188C307.604 78.1591 309.458 80.0639 313.293 80.831L316.694 81.5085C318.407 81.8537 319.187 82.4801 319.212 83.4645C319.187 84.6278 317.921 85.4588 316.016 85.4588C314.073 85.4588 312.782 84.6278 312.45 83.0298L307.093 83.3111C307.604 87.0696 310.8 89.3835 316.004 89.3835C321.092 89.3835 324.735 86.7884 324.748 82.9148C324.735 80.0767 322.881 78.3764 319.072 77.5966L315.518 76.8807C313.69 76.4844 313.012 75.858 313.025 74.9119C313.012 73.7358 314.342 72.9688 316.029 72.9688C317.921 72.9688 319.046 74.0043 319.315 75.2699L324.3 74.9631ZM331.36 89.3324C332.997 89.3324 334.416 87.9645 334.429 86.2642C334.416 84.5895 332.997 83.2216 331.36 83.2216C329.673 83.2216 328.279 84.5895 328.292 86.2642C328.279 87.9645 329.673 89.3324 331.36 89.3324ZM351.639 62.8182H346.104V89H351.639V62.8182ZM364.423 89H369.869V82.7614L371.339 81.0866L376.696 89H383.075L375.418 77.8651L382.705 69.3636H376.453L370.163 76.8168H369.869V62.8182H364.423V89ZM390.822 77.6477C390.835 75.1165 392.344 73.6335 394.543 73.6335C396.729 73.6335 398.045 75.0653 398.033 77.4688V89H403.479V76.4972C403.479 71.9205 400.794 69.108 396.703 69.108C393.788 69.108 391.679 70.5398 390.797 72.8281H390.567V69.3636H385.376V89H390.822V77.6477ZM416.643 89.3835C422.6 89.3835 426.308 85.3054 426.308 79.2585C426.308 73.1733 422.6 69.108 416.643 69.108C410.686 69.108 406.978 73.1733 406.978 79.2585C406.978 85.3054 410.686 89.3835 416.643 89.3835ZM416.669 85.1648C413.92 85.1648 412.514 82.6463 412.514 79.2202C412.514 75.794 413.92 73.2628 416.669 73.2628C419.366 73.2628 420.772 75.794 420.772 79.2202C420.772 82.6463 419.366 85.1648 416.669 85.1648ZM433.23 89H438.983L442.358 76.6506H442.601L445.976 89H451.742L457.073 69.3636H451.576L448.584 82.4801H448.418L445.196 69.3636H439.789L436.618 82.5568H436.439L433.397 69.3636H427.887L433.23 89ZM465.424 77.6477C465.437 75.1165 466.945 73.6335 469.144 73.6335C471.33 73.6335 472.647 75.0653 472.634 77.4688V89H478.08V76.4972C478.08 71.9205 475.396 69.108 471.305 69.108C468.39 69.108 466.281 70.5398 465.398 72.8281H465.168V69.3636H459.978V89H465.424V77.6477ZM488.292 85.4205H483.792L483.728 86.8523C483.574 90.3295 482.577 93.8963 482.206 95.392H485.735C486.348 93.8452 487.806 90.2145 488.151 86.8267L488.292 85.4205ZM500.475 89H505.844V85.8551H506.087C506.841 87.4915 508.49 89.3196 511.661 89.3196C516.135 89.3196 519.625 85.7784 519.625 79.2074C519.625 72.4574 515.982 69.108 511.674 69.108C508.388 69.108 506.816 71.0639 506.087 72.6619H505.921V62.8182H500.475V89ZM505.806 79.1818C505.806 75.679 507.289 73.4418 509.935 73.4418C512.632 73.4418 514.064 75.7812 514.064 79.1818C514.064 82.608 512.607 84.9858 509.935 84.9858C507.314 84.9858 505.806 82.6847 505.806 79.1818ZM535.852 80.6392C535.864 83.2727 534.062 84.6534 532.106 84.6534C530.048 84.6534 528.718 83.2088 528.705 80.8949V69.3636H523.259V81.8665C523.272 86.456 525.957 89.2557 529.907 89.2557C532.86 89.2557 534.982 87.7344 535.864 85.4332H536.069V89H541.298V69.3636H535.852V80.6392ZM545.654 89H551.1V69.3636H545.654V89ZM548.39 66.8324C550.013 66.8324 551.343 65.5923 551.343 64.071C551.343 62.5625 550.013 61.3224 548.39 61.3224C546.779 61.3224 545.449 62.5625 545.449 64.071C545.449 65.5923 546.779 66.8324 548.39 66.8324ZM560.908 62.8182H555.462V89H560.908V62.8182ZM572.507 89.3196C575.677 89.3196 577.326 87.4915 578.081 85.8551H578.311V89H583.68V62.8182H578.247V72.6619H578.081C577.352 71.0639 575.779 69.108 572.494 69.108C568.186 69.108 564.542 72.4574 564.542 79.2074C564.542 85.7784 568.032 89.3196 572.507 89.3196ZM574.233 84.9858C571.561 84.9858 570.103 82.608 570.103 79.1818C570.103 75.7812 571.535 73.4418 574.233 73.4418C576.879 73.4418 578.362 75.679 578.362 79.1818C578.362 82.6847 576.853 84.9858 574.233 84.9858ZM588.158 89H593.604V69.3636H588.158V89ZM590.893 66.8324C592.517 66.8324 593.847 65.5923 593.847 64.071C593.847 62.5625 592.517 61.3224 590.893 61.3224C589.283 61.3224 587.953 62.5625 587.953 64.071C587.953 65.5923 589.283 66.8324 590.893 66.8324ZM603.412 77.6477C603.425 75.1165 604.934 73.6335 607.132 73.6335C609.319 73.6335 610.635 75.0653 610.623 77.4688V89H616.069V76.4972C616.069 71.9205 613.384 69.108 609.293 69.108C606.378 69.108 604.269 70.5398 603.387 72.8281H603.157V69.3636H597.966V89H603.412V77.6477ZM629.207 96.7727C634.82 96.7727 638.808 94.2159 638.808 89.1918V69.3636H633.401V72.6619H633.196C632.467 71.0639 630.869 69.108 627.584 69.108C623.276 69.108 619.632 72.4574 619.632 79.1435C619.632 85.6761 623.173 88.7188 627.597 88.7188C630.729 88.7188 632.48 87.1463 633.196 85.5227H633.426V89.1151C633.426 91.8125 631.7 92.8608 629.335 92.8608C626.932 92.8608 625.717 91.8125 625.27 90.6236L620.233 91.3011C620.885 94.3949 623.915 96.7727 629.207 96.7727ZM629.322 84.6278C626.651 84.6278 625.193 82.5057 625.193 79.1179C625.193 75.7812 626.625 73.4418 629.322 73.4418C631.969 73.4418 633.452 75.679 633.452 79.1179C633.452 82.5824 631.943 84.6278 629.322 84.6278ZM25.7727 133.371C28.6747 133.371 30.554 132.105 31.5128 130.277H31.6662V133H36.831V119.756C36.831 115.077 32.8679 113.108 28.4957 113.108C23.7912 113.108 20.6974 115.358 19.9432 118.938L24.9801 119.347C25.3509 118.043 26.5142 117.084 28.4702 117.084C30.3239 117.084 31.3849 118.017 31.3849 119.628V119.705C31.3849 120.97 30.0426 121.136 26.6293 121.469C22.7429 121.827 19.2528 123.131 19.2528 127.516C19.2528 131.402 22.027 133.371 25.7727 133.371ZM27.3324 129.612C25.6577 129.612 24.456 128.832 24.456 127.337C24.456 125.803 25.7216 125.048 27.6392 124.78C28.8281 124.614 30.7713 124.332 31.4233 123.898V125.982C31.4233 128.04 29.723 129.612 27.3324 129.612ZM65.7262 118.963C65.2404 115.345 62.3256 113.108 57.3654 113.108C52.3413 113.108 49.0302 115.435 49.043 119.219C49.0302 122.159 50.8839 124.064 54.7191 124.831L58.1197 125.509C59.8327 125.854 60.6126 126.48 60.6381 127.464C60.6126 128.628 59.3469 129.459 57.4421 129.459C55.4989 129.459 54.2077 128.628 53.8754 127.03L48.5188 127.311C49.0302 131.07 52.2262 133.384 57.4293 133.384C62.5174 133.384 66.1609 130.788 66.1737 126.915C66.1609 124.077 64.3072 122.376 60.4975 121.597L56.9435 120.881C55.1154 120.484 54.4379 119.858 54.4506 118.912C54.4379 117.736 55.7674 116.969 57.4549 116.969C59.3469 116.969 60.4719 118.004 60.7404 119.27L65.7262 118.963ZM82.1953 124.639C82.2081 127.273 80.4055 128.653 78.4496 128.653C76.3913 128.653 75.0618 127.209 75.049 124.895V113.364H69.603V125.866C69.6158 130.456 72.3004 133.256 76.2507 133.256C79.2038 133.256 81.326 131.734 82.2081 129.433H82.4126V133H87.6413V113.364H82.1953V124.639ZM100.87 133.384C106.098 133.384 109.384 130.315 109.64 125.803H104.5C104.181 127.899 102.8 129.075 100.934 129.075C98.3896 129.075 96.7404 126.94 96.7404 123.182C96.7404 119.474 98.4023 117.352 100.934 117.352C102.928 117.352 104.206 118.669 104.5 120.625H109.64C109.409 116.087 105.971 113.108 100.844 113.108C94.8867 113.108 91.2049 117.237 91.2049 123.259C91.2049 129.229 94.8228 133.384 100.87 133.384ZM121.999 133.384C127.227 133.384 130.513 130.315 130.768 125.803H125.629C125.31 127.899 123.929 129.075 122.062 129.075C119.518 129.075 117.869 126.94 117.869 123.182C117.869 119.474 119.531 117.352 122.062 117.352C124.057 117.352 125.335 118.669 125.629 120.625H130.768C130.538 116.087 127.099 113.108 121.973 113.108C116.016 113.108 112.334 117.237 112.334 123.259C112.334 129.229 115.952 133.384 121.999 133.384ZM143.204 133.384C148.062 133.384 151.335 131.018 152.102 127.375L147.065 127.043C146.515 128.538 145.109 129.318 143.294 129.318C140.571 129.318 138.845 127.516 138.845 124.588V124.575H152.217V123.08C152.217 116.406 148.177 113.108 142.987 113.108C137.208 113.108 133.463 117.212 133.463 123.271C133.463 129.497 137.157 133.384 143.204 133.384ZM138.845 121.2C138.96 118.963 140.66 117.173 143.076 117.173C145.441 117.173 147.078 118.861 147.091 121.2H138.845ZM172.109 118.963C171.623 115.345 168.708 113.108 163.748 113.108C158.724 113.108 155.413 115.435 155.426 119.219C155.413 122.159 157.267 124.064 161.102 124.831L164.502 125.509C166.216 125.854 166.995 126.48 167.021 127.464C166.995 128.628 165.73 129.459 163.825 129.459C161.882 129.459 160.591 128.628 160.258 127.03L154.902 127.311C155.413 131.07 158.609 133.384 163.812 133.384C168.9 133.384 172.544 130.788 172.556 126.915C172.544 124.077 170.69 122.376 166.88 121.597L163.326 120.881C161.498 120.484 160.821 119.858 160.833 118.912C160.821 117.736 162.15 116.969 163.838 116.969C165.73 116.969 166.855 118.004 167.123 119.27L172.109 118.963ZM192.324 118.963C191.838 115.345 188.923 113.108 183.963 113.108C178.939 113.108 175.628 115.435 175.641 119.219C175.628 122.159 177.482 124.064 181.317 124.831L184.717 125.509C186.43 125.854 187.21 126.48 187.236 127.464C187.21 128.628 185.945 129.459 184.04 129.459C182.097 129.459 180.805 128.628 180.473 127.03L175.116 127.311C175.628 131.07 178.824 133.384 184.027 133.384C189.115 133.384 192.759 130.788 192.771 126.915C192.759 124.077 190.905 122.376 187.095 121.597L183.541 120.881C181.713 120.484 181.036 119.858 181.048 118.912C181.036 117.736 182.365 116.969 184.053 116.969C185.945 116.969 187.07 118.004 187.338 119.27L192.324 118.963ZM206.76 113.364H202.861V112.047C202.861 110.717 203.398 109.938 204.996 109.938C205.648 109.938 206.313 110.078 206.748 110.219L207.706 106.128C207.029 105.923 205.533 105.591 203.858 105.591C200.164 105.591 197.415 107.675 197.415 111.945V113.364H194.641V117.455H197.415V133H202.861V117.455H206.76V113.364ZM222.68 124.639C222.692 127.273 220.89 128.653 218.934 128.653C216.876 128.653 215.546 127.209 215.533 124.895V113.364H210.087V125.866C210.1 130.456 212.785 133.256 216.735 133.256C219.688 133.256 221.81 131.734 222.692 129.433H222.897V133H228.126V113.364H222.68V124.639ZM237.928 106.818H232.482V133H237.928V106.818ZM247.737 106.818H242.29V133H247.737V106.818ZM255.461 140.364C259.514 140.364 261.662 138.293 262.774 135.122L270.406 113.389L264.64 113.364L260.537 127.784H260.332L256.267 113.364H250.539L257.583 133.562L257.264 134.393C256.548 136.234 255.18 136.324 253.262 135.736L252.035 139.801C252.815 140.134 254.081 140.364 255.461 140.364ZM287.124 133.371C290.026 133.371 291.906 132.105 292.864 130.277H293.018V133H298.183V119.756C298.183 115.077 294.219 113.108 289.847 113.108C285.143 113.108 282.049 115.358 281.295 118.938L286.332 119.347C286.702 118.043 287.866 117.084 289.822 117.084C291.675 117.084 292.737 118.017 292.737 119.628V119.705C292.737 120.97 291.394 121.136 287.981 121.469C284.094 121.827 280.604 123.131 280.604 127.516C280.604 131.402 283.379 133.371 287.124 133.371ZM288.684 129.612C287.009 129.612 285.808 128.832 285.808 127.337C285.808 125.803 287.073 125.048 288.991 124.78C290.18 124.614 292.123 124.332 292.775 123.898V125.982C292.775 128.04 291.075 129.612 288.684 129.612ZM307.854 121.648C307.866 119.116 309.375 117.634 311.574 117.634C313.76 117.634 315.077 119.065 315.064 121.469V133H320.51V120.497C320.51 115.92 317.825 113.108 313.734 113.108C310.82 113.108 308.71 114.54 307.828 116.828H307.598V113.364H302.408V133H307.854V121.648ZM332.038 133.32C335.208 133.32 336.858 131.491 337.612 129.855H337.842V133H343.211V106.818H337.778V116.662H337.612C336.883 115.064 335.311 113.108 332.025 113.108C327.717 113.108 324.074 116.457 324.074 123.207C324.074 129.778 327.564 133.32 332.038 133.32ZM333.764 128.986C331.092 128.986 329.635 126.608 329.635 123.182C329.635 119.781 331.066 117.442 333.764 117.442C336.41 117.442 337.893 119.679 337.893 123.182C337.893 126.685 336.385 128.986 333.764 128.986ZM368.613 124.639C368.626 127.273 366.824 128.653 364.868 128.653C362.809 128.653 361.48 127.209 361.467 124.895V113.364H356.021V125.866C356.034 130.456 358.718 133.256 362.669 133.256C365.622 133.256 367.744 131.734 368.626 129.433H368.831V133H374.059V113.364H368.613V124.639ZM394.754 118.963C394.268 115.345 391.353 113.108 386.393 113.108C381.369 113.108 378.058 115.435 378.07 119.219C378.058 122.159 379.911 124.064 383.746 124.831L387.147 125.509C388.86 125.854 389.64 126.48 389.665 127.464C389.64 128.628 388.374 129.459 386.469 129.459C384.526 129.459 383.235 128.628 382.903 127.03L377.546 127.311C378.058 131.07 381.254 133.384 386.457 133.384C391.545 133.384 395.188 130.788 395.201 126.915C395.188 124.077 393.335 122.376 389.525 121.597L385.971 120.881C384.143 120.484 383.465 119.858 383.478 118.912C383.465 117.736 384.795 116.969 386.482 116.969C388.374 116.969 389.499 118.004 389.768 119.27L394.754 118.963ZM407.579 133.384C412.437 133.384 415.71 131.018 416.477 127.375L411.44 127.043C410.89 128.538 409.484 129.318 407.669 129.318C404.946 129.318 403.22 127.516 403.22 124.588V124.575H416.592V123.08C416.592 116.406 412.552 113.108 407.362 113.108C401.583 113.108 397.838 117.212 397.838 123.271C397.838 129.497 401.532 133.384 407.579 133.384ZM403.22 121.2C403.335 118.963 405.035 117.173 407.451 117.173C409.816 117.173 411.453 118.861 411.466 121.2H403.22ZM420.146 133H425.592V121.891C425.592 119.474 427.356 117.812 429.76 117.812C430.514 117.812 431.549 117.94 432.061 118.107V113.274C431.575 113.159 430.897 113.082 430.348 113.082C428.149 113.082 426.346 114.361 425.63 116.79H425.426V113.364H420.146V133ZM452.157 133.384C457.015 133.384 460.288 131.018 461.055 127.375L456.018 127.043C455.468 128.538 454.062 129.318 452.247 129.318C449.524 129.318 447.798 127.516 447.798 124.588V124.575H461.17V123.08C461.17 116.406 457.13 113.108 451.94 113.108C446.162 113.108 442.416 117.212 442.416 123.271C442.416 129.497 446.11 133.384 452.157 133.384ZM447.798 121.2C447.913 118.963 449.613 117.173 452.029 117.173C454.395 117.173 456.031 118.861 456.044 121.2H447.798ZM468.959 113.364H463.334L468.959 123.182L463.129 133H468.754L472.564 126.212L476.438 133H481.999L476.156 123.182L481.845 113.364H476.259L472.564 120.229L468.959 113.364ZM485.08 140.364H490.526V129.855H490.692C491.446 131.491 493.095 133.32 496.266 133.32C500.74 133.32 504.23 129.778 504.23 123.207C504.23 116.457 500.587 113.108 496.278 113.108C492.993 113.108 491.42 115.064 490.692 116.662H490.449V113.364H485.08V140.364ZM490.411 123.182C490.411 119.679 491.893 117.442 494.54 117.442C497.237 117.442 498.669 119.781 498.669 123.182C498.669 126.608 497.212 128.986 494.54 128.986C491.919 128.986 490.411 126.685 490.411 123.182ZM516.81 133.384C521.668 133.384 524.94 131.018 525.707 127.375L520.67 127.043C520.121 128.538 518.714 129.318 516.899 129.318C514.176 129.318 512.45 127.516 512.45 124.588V124.575H525.822V123.08C525.822 116.406 521.783 113.108 516.592 113.108C510.814 113.108 507.068 117.212 507.068 123.271C507.068 129.497 510.763 133.384 516.81 133.384ZM512.45 121.2C512.565 118.963 514.266 117.173 516.682 117.173C519.047 117.173 520.683 118.861 520.696 121.2H512.45ZM529.376 133H534.822V121.891C534.822 119.474 536.587 117.812 538.99 117.812C539.744 117.812 540.78 117.94 541.291 118.107V113.274C540.805 113.159 540.128 113.082 539.578 113.082C537.379 113.082 535.577 114.361 534.861 116.79H534.656V113.364H529.376V133ZM544.107 133H549.553V113.364H544.107V133ZM546.843 110.832C548.466 110.832 549.796 109.592 549.796 108.071C549.796 106.562 548.466 105.322 546.843 105.322C545.232 105.322 543.902 106.562 543.902 108.071C543.902 109.592 545.232 110.832 546.843 110.832ZM562.864 133.384C567.722 133.384 570.995 131.018 571.762 127.375L566.725 127.043C566.175 128.538 564.769 129.318 562.954 129.318C560.231 129.318 558.505 127.516 558.505 124.588V124.575H571.877V123.08C571.877 116.406 567.837 113.108 562.647 113.108C556.869 113.108 553.123 117.212 553.123 123.271C553.123 129.497 556.817 133.384 562.864 133.384ZM558.505 121.2C558.62 118.963 560.32 117.173 562.737 117.173C565.102 117.173 566.738 118.861 566.751 121.2H558.505ZM580.877 121.648C580.89 119.116 582.398 117.634 584.597 117.634C586.783 117.634 588.1 119.065 588.087 121.469V133H593.533V120.497C593.533 115.92 590.849 113.108 586.758 113.108C583.843 113.108 581.734 114.54 580.852 116.828H580.621V113.364H575.431V133H580.877V121.648ZM606.698 133.384C611.926 133.384 615.212 130.315 615.468 125.803H610.328C610.009 127.899 608.628 129.075 606.762 129.075C604.218 129.075 602.569 126.94 602.569 123.182C602.569 119.474 604.23 117.352 606.762 117.352C608.756 117.352 610.034 118.669 610.328 120.625H615.468C615.238 116.087 611.799 113.108 606.672 113.108C600.715 113.108 597.033 117.237 597.033 123.259C597.033 129.229 600.651 133.384 606.698 133.384ZM627.903 133.384C632.761 133.384 636.034 131.018 636.801 127.375L631.764 127.043C631.214 128.538 629.808 129.318 627.993 129.318C625.27 129.318 623.544 127.516 623.544 124.588V124.575H636.916V123.08C636.916 116.406 632.876 113.108 627.686 113.108C621.908 113.108 618.162 117.212 618.162 123.271C618.162 129.497 621.857 133.384 627.903 133.384ZM623.544 121.2C623.659 118.963 625.359 117.173 627.776 117.173C630.141 117.173 631.777 118.861 631.79 121.2H623.544ZM36.5114 162.963C36.0256 159.345 33.1108 157.108 28.1506 157.108C23.1264 157.108 19.8153 159.435 19.8281 163.219C19.8153 166.159 21.669 168.064 25.5043 168.831L28.9048 169.509C30.6179 169.854 31.3977 170.48 31.4233 171.464C31.3977 172.628 30.1321 173.459 28.2273 173.459C26.2841 173.459 24.9929 172.628 24.6605 171.03L19.304 171.311C19.8153 175.07 23.0114 177.384 28.2145 177.384C33.3026 177.384 36.946 174.788 36.9588 170.915C36.946 168.077 35.0923 166.376 31.2827 165.597L27.7287 164.881C25.9006 164.484 25.223 163.858 25.2358 162.912C25.223 161.736 26.5526 160.969 28.2401 160.969C30.1321 160.969 31.2571 162.004 31.5256 163.27L36.5114 162.963ZM49.2603 177.384C55.2177 177.384 58.9251 173.305 58.9251 167.259C58.9251 161.173 55.2177 157.108 49.2603 157.108C43.3029 157.108 39.5955 161.173 39.5955 167.259C39.5955 173.305 43.3029 177.384 49.2603 177.384ZM49.2859 173.165C46.5373 173.165 45.131 170.646 45.131 167.22C45.131 163.794 46.5373 161.263 49.2859 161.263C51.9833 161.263 53.3896 163.794 53.3896 167.22C53.3896 170.646 51.9833 173.165 49.2859 173.165ZM73.0259 157.364H69.1268V156.047C69.1268 154.717 69.6637 153.938 71.2617 153.938C71.9137 153.938 72.5785 154.078 73.0131 154.219L73.9719 150.128C73.2944 149.923 71.7987 149.591 70.1239 149.591C66.4293 149.591 63.6808 151.675 63.6808 155.945V157.364H60.9066V161.455H63.6808V177H69.1268V161.455H73.0259V157.364ZM86.7976 157.364H83.103V152.659H77.657V157.364H74.9723V161.455H77.657V171.682C77.6314 175.53 80.2521 177.435 84.2024 177.268C85.6087 177.217 86.6058 176.936 87.1555 176.757L86.299 172.705C86.0305 172.756 85.4553 172.884 84.9439 172.884C83.8572 172.884 83.103 172.474 83.103 170.966V161.455H86.7976V157.364ZM94.2188 177H99.9716L103.347 164.651H103.589L106.964 177H112.73L118.061 157.364H112.564L109.572 170.48H109.406L106.185 157.364H100.777L97.6065 170.557H97.4276L94.3849 157.364H88.875L94.2188 177ZM126.566 177.371C129.468 177.371 131.347 176.105 132.306 174.277H132.459V177H137.624V163.756C137.624 159.077 133.661 157.108 129.289 157.108C124.584 157.108 121.49 159.358 120.736 162.938L125.773 163.347C126.144 162.043 127.307 161.084 129.263 161.084C131.117 161.084 132.178 162.017 132.178 163.628V163.705C132.178 164.97 130.836 165.136 127.422 165.469C123.536 165.827 120.046 167.131 120.046 171.516C120.046 175.402 122.82 177.371 126.566 177.371ZM128.125 173.612C126.451 173.612 125.249 172.832 125.249 171.337C125.249 169.803 126.515 169.048 128.432 168.78C129.621 168.614 131.564 168.332 132.216 167.898V169.982C132.216 172.04 130.516 173.612 128.125 173.612ZM141.849 177H147.295V165.891C147.295 163.474 149.059 161.812 151.463 161.812C152.217 161.812 153.252 161.94 153.764 162.107V157.274C153.278 157.159 152.6 157.082 152.051 157.082C149.852 157.082 148.049 158.361 147.333 160.79H147.129V157.364H141.849V177ZM164.614 177.384C169.472 177.384 172.745 175.018 173.512 171.375L168.475 171.043C167.925 172.538 166.519 173.318 164.704 173.318C161.981 173.318 160.255 171.516 160.255 168.588V168.575H173.627V167.08C173.627 160.406 169.587 157.108 164.397 157.108C158.619 157.108 154.873 161.212 154.873 167.271C154.873 173.497 158.567 177.384 164.614 177.384ZM160.255 165.2C160.37 162.963 162.07 161.173 164.487 161.173C166.852 161.173 168.488 162.861 168.501 165.2H160.255ZM191.113 177.371C194.015 177.371 195.894 176.105 196.853 174.277H197.006V177H202.171V163.756C202.171 159.077 198.208 157.108 193.836 157.108C189.131 157.108 186.037 159.358 185.283 162.938L190.32 163.347C190.691 162.043 191.854 161.084 193.81 161.084C195.664 161.084 196.725 162.017 196.725 163.628V163.705C196.725 164.97 195.382 165.136 191.969 165.469C188.083 165.827 184.593 167.131 184.593 171.516C184.593 175.402 187.367 177.371 191.113 177.371ZM192.672 173.612C190.998 173.612 189.796 172.832 189.796 171.337C189.796 169.803 191.061 169.048 192.979 168.78C194.168 168.614 196.111 168.332 196.763 167.898V169.982C196.763 172.04 195.063 173.612 192.672 173.612ZM206.396 184.364H211.842V173.855H212.008C212.762 175.491 214.412 177.32 217.582 177.32C222.056 177.32 225.547 173.778 225.547 167.207C225.547 160.457 221.903 157.108 217.595 157.108C214.309 157.108 212.737 159.064 212.008 160.662H211.765V157.364H206.396V184.364ZM211.727 167.182C211.727 163.679 213.21 161.442 215.856 161.442C218.554 161.442 219.985 163.781 219.985 167.182C219.985 170.608 218.528 172.986 215.856 172.986C213.235 172.986 211.727 170.685 211.727 167.182ZM229.177 184.364H234.623V173.855H234.789C235.544 175.491 237.193 177.32 240.363 177.32C244.838 177.32 248.328 173.778 248.328 167.207C248.328 160.457 244.684 157.108 240.376 157.108C237.091 157.108 235.518 159.064 234.789 160.662H234.547V157.364H229.177V184.364ZM234.508 167.182C234.508 163.679 235.991 161.442 238.637 161.442C241.335 161.442 242.767 163.781 242.767 167.182C242.767 170.608 241.309 172.986 238.637 172.986C236.017 172.986 234.508 170.685 234.508 167.182ZM257.404 150.818H251.958V177H257.404V150.818ZM261.767 177H267.213V157.364H261.767V177ZM264.503 154.832C266.126 154.832 267.456 153.592 267.456 152.071C267.456 150.562 266.126 149.322 264.503 149.322C262.892 149.322 261.562 150.562 261.562 152.071C261.562 153.592 262.892 154.832 264.503 154.832ZM280.448 177.384C285.676 177.384 288.962 174.315 289.218 169.803H284.078C283.759 171.899 282.378 173.075 280.512 173.075C277.968 173.075 276.319 170.94 276.319 167.182C276.319 163.474 277.98 161.352 280.512 161.352C282.506 161.352 283.784 162.669 284.078 164.625H289.218C288.988 160.087 285.549 157.108 280.422 157.108C274.465 157.108 270.783 161.237 270.783 167.259C270.783 173.229 274.401 177.384 280.448 177.384ZM298.304 177.371C301.206 177.371 303.085 176.105 304.044 174.277H304.197V177H309.362V163.756C309.362 159.077 305.399 157.108 301.027 157.108C296.322 157.108 293.229 159.358 292.474 162.938L297.511 163.347C297.882 162.043 299.045 161.084 301.001 161.084C302.855 161.084 303.916 162.017 303.916 163.628V163.705C303.916 164.97 302.574 165.136 299.161 165.469C295.274 165.827 291.784 167.131 291.784 171.516C291.784 175.402 294.558 177.371 298.304 177.371ZM299.864 173.612C298.189 173.612 296.987 172.832 296.987 171.337C296.987 169.803 298.253 169.048 300.17 168.78C301.359 168.614 303.303 168.332 303.955 167.898V169.982C303.955 172.04 302.254 173.612 299.864 173.612ZM324.032 157.364H320.337V152.659H314.891V157.364H312.207V161.455H314.891V171.682C314.866 175.53 317.487 177.435 321.437 177.268C322.843 177.217 323.84 176.936 324.39 176.757L323.533 172.705C323.265 172.756 322.69 172.884 322.178 172.884C321.092 172.884 320.337 172.474 320.337 170.966V161.455H324.032V157.364ZM327.58 177H333.026V157.364H327.58V177ZM330.315 154.832C331.939 154.832 333.268 153.592 333.268 152.071C333.268 150.562 331.939 149.322 330.315 149.322C328.705 149.322 327.375 150.562 327.375 152.071C327.375 153.592 328.705 154.832 330.315 154.832ZM346.26 177.384C352.218 177.384 355.925 173.305 355.925 167.259C355.925 161.173 352.218 157.108 346.26 157.108C340.303 157.108 336.596 161.173 336.596 167.259C336.596 173.305 340.303 177.384 346.26 177.384ZM346.286 173.165C343.537 173.165 342.131 170.646 342.131 167.22C342.131 163.794 343.537 161.263 346.286 161.263C348.983 161.263 350.39 163.794 350.39 167.22C350.39 170.646 348.983 173.165 346.286 173.165ZM364.912 165.648C364.925 163.116 366.434 161.634 368.632 161.634C370.819 161.634 372.135 163.065 372.123 165.469V177H377.569V164.497C377.569 159.92 374.884 157.108 370.793 157.108C367.878 157.108 365.769 158.54 364.887 160.828H364.657V157.364H359.466V177H364.912V165.648ZM399.065 177.384C404.294 177.384 407.579 174.315 407.835 169.803H402.696C402.376 171.899 400.995 173.075 399.129 173.075C396.585 173.075 394.936 170.94 394.936 167.182C394.936 163.474 396.598 161.352 399.129 161.352C401.123 161.352 402.402 162.669 402.696 164.625H407.835C407.605 160.087 404.166 157.108 399.039 157.108C393.082 157.108 389.4 161.237 389.4 167.259C389.4 173.229 393.018 177.384 399.065 177.384ZM416.921 177.371C419.823 177.371 421.702 176.105 422.661 174.277H422.815V177H427.979V163.756C427.979 159.077 424.016 157.108 419.644 157.108C414.94 157.108 411.846 159.358 411.092 162.938L416.129 163.347C416.499 162.043 417.663 161.084 419.619 161.084C421.472 161.084 422.533 162.017 422.533 163.628V163.705C422.533 164.97 421.191 165.136 417.778 165.469C413.891 165.827 410.401 167.131 410.401 171.516C410.401 175.402 413.175 177.371 416.921 177.371ZM418.481 173.612C416.806 173.612 415.604 172.832 415.604 171.337C415.604 169.803 416.87 169.048 418.788 168.78C419.977 168.614 421.92 168.332 422.572 167.898V169.982C422.572 172.04 420.871 173.612 418.481 173.612ZM437.651 165.648C437.663 163.116 439.172 161.634 441.371 161.634C443.557 161.634 444.874 163.065 444.861 165.469V177H450.307V164.497C450.307 159.92 447.622 157.108 443.531 157.108C440.616 157.108 438.507 158.54 437.625 160.828H437.395V157.364H432.205V177H437.651V165.648ZM463.033 177H468.403V173.855H468.646C469.4 175.491 471.049 177.32 474.219 177.32C478.694 177.32 482.184 173.778 482.184 167.207C482.184 160.457 478.54 157.108 474.232 157.108C470.947 157.108 469.374 159.064 468.646 160.662H468.479V150.818H463.033V177ZM468.364 167.182C468.364 163.679 469.847 161.442 472.494 161.442C475.191 161.442 476.623 163.781 476.623 167.182C476.623 170.608 475.165 172.986 472.494 172.986C469.873 172.986 468.364 170.685 468.364 167.182ZM494.767 177.384C499.625 177.384 502.897 175.018 503.664 171.375L498.627 171.043C498.078 172.538 496.672 173.318 494.856 173.318C492.133 173.318 490.407 171.516 490.407 168.588V168.575H503.779V167.08C503.779 160.406 499.74 157.108 494.549 157.108C488.771 157.108 485.025 161.212 485.025 167.271C485.025 173.497 488.72 177.384 494.767 177.384ZM490.407 165.2C490.522 162.963 492.223 161.173 494.639 161.173C497.004 161.173 498.64 162.861 498.653 165.2H490.407ZM515.768 177H521.137V173.855H521.38C522.134 175.491 523.783 177.32 526.954 177.32C531.428 177.32 534.918 173.778 534.918 167.207C534.918 160.457 531.275 157.108 526.967 157.108C523.681 157.108 522.109 159.064 521.38 160.662H521.214V150.818H515.768V177ZM521.099 167.182C521.099 163.679 522.582 161.442 525.228 161.442C527.925 161.442 529.357 163.781 529.357 167.182C529.357 170.608 527.9 172.986 525.228 172.986C522.607 172.986 521.099 170.685 521.099 167.182ZM538.552 177H543.998V157.364H538.552V177ZM541.288 154.832C542.912 154.832 544.241 153.592 544.241 152.071C544.241 150.562 542.912 149.322 541.288 149.322C539.677 149.322 538.348 150.562 538.348 152.071C538.348 153.592 539.677 154.832 541.288 154.832ZM558.805 157.364H555.111V152.659H549.665V157.364H546.98V161.455H549.665V171.682C549.639 175.53 552.26 177.435 556.21 177.268C557.616 177.217 558.614 176.936 559.163 176.757L558.307 172.705C558.038 172.756 557.463 172.884 556.952 172.884C555.865 172.884 555.111 172.474 555.111 170.966V161.455H558.805V157.364ZM29.0455 221.384C34.2741 221.384 37.5597 218.315 37.8153 213.803H32.6761C32.3565 215.899 30.9759 217.075 29.1094 217.075C26.5653 217.075 24.9162 214.94 24.9162 211.182C24.9162 207.474 26.5781 205.352 29.1094 205.352C31.1037 205.352 32.3821 206.669 32.6761 208.625H37.8153C37.5852 204.087 34.1463 201.108 29.0199 201.108C23.0625 201.108 19.3807 205.237 19.3807 211.259C19.3807 217.229 22.9986 221.384 29.0455 221.384ZM46.7482 209.648C46.761 207.116 48.3079 205.634 50.5323 205.634C52.744 205.634 54.0479 207.053 54.0352 209.469V221H59.4812V208.497C59.494 203.895 56.7837 201.108 52.6928 201.108C49.7141 201.108 47.7198 202.514 46.8249 204.828H46.5948V194.818H41.3022V221H46.7482V209.648ZM69.3665 221.371C72.2685 221.371 74.1477 220.105 75.1065 218.277H75.2599V221H80.4247V207.756C80.4247 203.077 76.4616 201.108 72.0895 201.108C67.3849 201.108 64.2912 203.358 63.5369 206.938L68.5739 207.347C68.9446 206.043 70.108 205.084 72.0639 205.084C73.9176 205.084 74.9787 206.017 74.9787 207.628V207.705C74.9787 208.97 73.6364 209.136 70.223 209.469C66.3366 209.827 62.8466 211.131 62.8466 215.516C62.8466 219.402 65.6207 221.371 69.3665 221.371ZM70.9261 217.612C69.2514 217.612 68.0497 216.832 68.0497 215.337C68.0497 213.803 69.3153 213.048 71.233 212.78C72.4219 212.614 74.3651 212.332 75.017 211.898V213.982C75.017 216.04 73.3168 217.612 70.9261 217.612ZM90.0959 194.818H84.6499V221H90.0959V194.818ZM99.9045 194.818H94.4585V221H99.9045V194.818ZM113.216 221.384C118.074 221.384 121.347 219.018 122.114 215.375L117.077 215.043C116.527 216.538 115.121 217.318 113.305 217.318C110.582 217.318 108.857 215.516 108.857 212.588V212.575H122.229V211.08C122.229 204.406 118.189 201.108 112.999 201.108C107.22 201.108 103.474 205.212 103.474 211.271C103.474 217.497 107.169 221.384 113.216 221.384ZM108.857 209.2C108.972 206.963 110.672 205.173 113.088 205.173C115.453 205.173 117.089 206.861 117.102 209.2H108.857ZM131.229 209.648C131.241 207.116 132.75 205.634 134.949 205.634C137.135 205.634 138.452 207.065 138.439 209.469V221H143.885V208.497C143.885 203.92 141.2 201.108 137.109 201.108C134.195 201.108 132.085 202.54 131.203 204.828H130.973V201.364H125.783V221H131.229V209.648ZM157.024 228.773C162.636 228.773 166.625 226.216 166.625 221.192V201.364H161.217V204.662H161.012C160.284 203.064 158.686 201.108 155.4 201.108C151.092 201.108 147.449 204.457 147.449 211.143C147.449 217.676 150.99 220.719 155.413 220.719C158.545 220.719 160.297 219.146 161.012 217.523H161.243V221.115C161.243 223.812 159.517 224.861 157.152 224.861C154.748 224.861 153.534 223.812 153.086 222.624L148.049 223.301C148.701 226.395 151.731 228.773 157.024 228.773ZM157.139 216.628C154.467 216.628 153.01 214.506 153.01 211.118C153.01 207.781 154.441 205.442 157.139 205.442C159.785 205.442 161.268 207.679 161.268 211.118C161.268 214.582 159.76 216.628 157.139 216.628ZM170.958 221H176.404V201.364H170.958V221ZM173.694 198.832C175.318 198.832 176.647 197.592 176.647 196.071C176.647 194.562 175.318 193.322 173.694 193.322C172.083 193.322 170.754 194.562 170.754 196.071C170.754 197.592 172.083 198.832 173.694 198.832ZM186.213 209.648C186.226 207.116 187.734 205.634 189.933 205.634C192.119 205.634 193.436 207.065 193.423 209.469V221H198.869V208.497C198.869 203.92 196.185 201.108 192.094 201.108C189.179 201.108 187.07 202.54 186.188 204.828H185.957V201.364H180.767V221H186.213V209.648ZM212.008 228.773C217.62 228.773 221.609 226.216 221.609 221.192V201.364H216.201V204.662H215.997C215.268 203.064 213.67 201.108 210.385 201.108C206.076 201.108 202.433 204.457 202.433 211.143C202.433 217.676 205.974 220.719 210.397 220.719C213.529 220.719 215.281 219.146 215.997 217.523H216.227V221.115C216.227 223.812 214.501 224.861 212.136 224.861C209.733 224.861 208.518 223.812 208.071 222.624L203.034 223.301C203.686 226.395 206.716 228.773 212.008 228.773ZM212.123 216.628C209.451 216.628 207.994 214.506 207.994 211.118C207.994 207.781 209.426 205.442 212.123 205.442C214.77 205.442 216.252 207.679 216.252 211.118C216.252 214.582 214.744 216.628 212.123 216.628ZM244.719 201.364H241.025V196.659H235.579V201.364H232.894V205.455H235.579V215.682C235.553 219.53 238.174 221.435 242.124 221.268C243.531 221.217 244.528 220.936 245.077 220.757L244.221 216.705C243.952 216.756 243.377 216.884 242.866 216.884C241.779 216.884 241.025 216.474 241.025 214.966V205.455H244.719V201.364ZM254.135 209.648C254.148 207.116 255.695 205.634 257.919 205.634C260.131 205.634 261.435 207.053 261.422 209.469V221H266.868V208.497C266.881 203.895 264.17 201.108 260.08 201.108C257.101 201.108 255.107 202.514 254.212 204.828H253.982V194.818H248.689V221H254.135V209.648ZM280.026 221.384C285.983 221.384 289.691 217.305 289.691 211.259C289.691 205.173 285.983 201.108 280.026 201.108C274.069 201.108 270.361 205.173 270.361 211.259C270.361 217.305 274.069 221.384 280.026 221.384ZM280.051 217.165C277.303 217.165 275.897 214.646 275.897 211.22C275.897 207.794 277.303 205.263 280.051 205.263C282.749 205.263 284.155 207.794 284.155 211.22C284.155 214.646 282.749 217.165 280.051 217.165ZM305.824 212.639C305.837 215.273 304.034 216.653 302.078 216.653C300.02 216.653 298.691 215.209 298.678 212.895V201.364H293.232V213.866C293.245 218.456 295.929 221.256 299.88 221.256C302.833 221.256 304.955 219.734 305.837 217.433H306.042V221H311.27V201.364H305.824V212.639ZM321.545 217.42H317.045L316.982 218.852C316.828 222.33 315.831 225.896 315.46 227.392H318.989C319.602 225.845 321.06 222.214 321.405 218.827L321.545 217.42ZM333.729 221H339.098V217.855H339.341C340.095 219.491 341.744 221.32 344.915 221.32C349.389 221.32 352.879 217.778 352.879 211.207C352.879 204.457 349.236 201.108 344.928 201.108C341.642 201.108 340.07 203.064 339.341 204.662H339.175V194.818H333.729V221ZM339.06 211.182C339.06 207.679 340.543 205.442 343.189 205.442C345.886 205.442 347.318 207.781 347.318 211.182C347.318 214.608 345.861 216.986 343.189 216.986C340.568 216.986 339.06 214.685 339.06 211.182ZM369.105 212.639C369.118 215.273 367.316 216.653 365.36 216.653C363.301 216.653 361.972 215.209 361.959 212.895V201.364H356.513V213.866C356.526 218.456 359.211 221.256 363.161 221.256C366.114 221.256 368.236 219.734 369.118 217.433H369.323V221H374.551V201.364H369.105V212.639ZM389.352 201.364H385.658V196.659H380.212V201.364H377.527V205.455H380.212V215.682C380.186 219.53 382.807 221.435 386.757 221.268C388.163 221.217 389.161 220.936 389.71 220.757L388.854 216.705C388.585 216.756 388.01 216.884 387.499 216.884C386.412 216.884 385.658 216.474 385.658 214.966V205.455H389.352V201.364ZM406.678 194.818H401.232V221H406.678V194.818ZM423.633 212.639C423.646 215.273 421.843 216.653 419.887 216.653C417.829 216.653 416.499 215.209 416.487 212.895V201.364H411.04V213.866C411.053 218.456 413.738 221.256 417.688 221.256C420.641 221.256 422.763 219.734 423.646 217.433H423.85V221H429.079V201.364H423.633V212.639ZM442.307 221.384C447.536 221.384 450.821 218.315 451.077 213.803H445.938C445.618 215.899 444.238 217.075 442.371 217.075C439.827 217.075 438.178 214.94 438.178 211.182C438.178 207.474 439.84 205.352 442.371 205.352C444.365 205.352 445.644 206.669 445.938 208.625H451.077C450.847 204.087 447.408 201.108 442.282 201.108C436.324 201.108 432.642 205.237 432.642 211.259C432.642 217.229 436.26 221.384 442.307 221.384ZM454.564 221H460.01V214.761L461.48 213.087L466.837 221H473.216L465.558 209.865L472.845 201.364H466.594L460.304 208.817H460.01V194.818H454.564V221ZM479.196 228.364C483.248 228.364 485.396 226.293 486.508 223.122L494.14 201.389L488.375 201.364L484.271 215.784H484.066L480.001 201.364H474.274L481.318 221.562L480.998 222.393C480.282 224.234 478.914 224.324 476.997 223.736L475.77 227.801C476.549 228.134 477.815 228.364 479.196 228.364ZM515.819 201.364H511.92V200.047C511.92 198.717 512.457 197.938 514.055 197.938C514.707 197.938 515.371 198.078 515.806 198.219L516.765 194.128C516.087 193.923 514.592 193.591 512.917 193.591C509.222 193.591 506.474 195.675 506.474 199.945V201.364H503.7V205.455H506.474V221H511.92V205.455H515.819V201.364ZM527.315 221.384C533.272 221.384 536.98 217.305 536.98 211.259C536.98 205.173 533.272 201.108 527.315 201.108C521.358 201.108 517.65 205.173 517.65 211.259C517.65 217.305 521.358 221.384 527.315 221.384ZM527.341 217.165C524.592 217.165 523.186 214.646 523.186 211.22C523.186 207.794 524.592 205.263 527.341 205.263C530.038 205.263 531.444 207.794 531.444 211.22C531.444 214.646 530.038 217.165 527.341 217.165ZM540.521 221H545.967V209.891C545.967 207.474 547.731 205.812 550.135 205.812C550.889 205.812 551.924 205.94 552.436 206.107V201.274C551.95 201.159 551.272 201.082 550.723 201.082C548.524 201.082 546.721 202.361 546.005 204.79H545.801V201.364H540.521V221ZM579.858 194.818V211.348C579.858 214.339 577.761 216.5 574.539 216.5C571.331 216.5 569.221 214.339 569.221 211.348V194.818H563.686V211.821C563.686 217.548 568.007 221.371 574.539 221.371C581.047 221.371 585.393 217.548 585.393 211.821V194.818H579.858ZM29.0455 265.384C34.2741 265.384 37.5597 262.315 37.8153 257.803H32.6761C32.3565 259.899 30.9759 261.075 29.1094 261.075C26.5653 261.075 24.9162 258.94 24.9162 255.182C24.9162 251.474 26.5781 249.352 29.1094 249.352C31.1037 249.352 32.3821 250.669 32.6761 252.625H37.8153C37.5852 248.087 34.1463 245.108 29.0199 245.108C23.0625 245.108 19.3807 249.237 19.3807 255.259C19.3807 261.229 22.9986 265.384 29.0455 265.384ZM53.8945 256.639C53.9073 259.273 52.1048 260.653 50.1488 260.653C48.0906 260.653 46.761 259.209 46.7482 256.895V245.364H41.3022V257.866C41.315 262.456 43.9996 265.256 47.9499 265.256C50.9031 265.256 53.0252 263.734 53.9073 261.433H54.1119V265H59.3406V245.364H53.8945V256.639ZM63.5945 265H80.0987V260.653H70.7408V260.513L79.7663 248.905V245.364H63.9268V249.71H73.2081V249.851L63.5945 261.753V265ZM92.5952 265H98.0412V245.364H92.5952V265ZM95.331 242.832C96.9545 242.832 98.2841 241.592 98.2841 240.071C98.2841 238.562 96.9545 237.322 95.331 237.322C93.7202 237.322 92.3906 238.562 92.3906 240.071C92.3906 241.592 93.7202 242.832 95.331 242.832ZM119.582 272.773C125.195 272.773 129.183 270.216 129.183 265.192V245.364H123.776V248.662H123.571C122.842 247.064 121.244 245.108 117.959 245.108C113.651 245.108 110.007 248.457 110.007 255.143C110.007 261.676 113.548 264.719 117.972 264.719C121.104 264.719 122.855 263.146 123.571 261.523H123.801V265.115C123.801 267.812 122.075 268.861 119.71 268.861C117.307 268.861 116.092 267.812 115.645 266.624L110.608 267.301C111.26 270.395 114.29 272.773 119.582 272.773ZM119.697 260.628C117.026 260.628 115.568 258.506 115.568 255.118C115.568 251.781 117 249.442 119.697 249.442C122.344 249.442 123.827 251.679 123.827 255.118C123.827 258.582 122.318 260.628 119.697 260.628ZM142.389 265.384C148.347 265.384 152.054 261.305 152.054 255.259C152.054 249.173 148.347 245.108 142.389 245.108C136.432 245.108 132.724 249.173 132.724 255.259C132.724 261.305 136.432 265.384 142.389 265.384ZM142.415 261.165C139.666 261.165 138.26 258.646 138.26 255.22C138.26 251.794 139.666 249.263 142.415 249.263C145.112 249.263 146.518 251.794 146.518 255.22C146.518 258.646 145.112 261.165 142.415 261.165ZM166.04 245.364H162.345V240.659H156.899V245.364H154.214V249.455H156.899V259.682C156.874 263.53 159.494 265.435 163.445 265.268C164.851 265.217 165.848 264.936 166.398 264.757L165.541 260.705C165.273 260.756 164.697 260.884 164.186 260.884C163.099 260.884 162.345 260.474 162.345 258.966V249.455H166.04V245.364ZM194.194 238.818V255.348C194.194 258.339 192.097 260.5 188.875 260.5C185.667 260.5 183.557 258.339 183.557 255.348V238.818H178.022V255.821C178.022 261.548 182.343 265.371 188.875 265.371C195.382 265.371 199.729 261.548 199.729 255.821V238.818H194.194ZM221.385 265.384C226.614 265.384 229.9 262.315 230.155 257.803H225.016C224.696 259.899 223.316 261.075 221.449 261.075C218.905 261.075 217.256 258.94 217.256 255.182C217.256 251.474 218.918 249.352 221.449 249.352C223.444 249.352 224.722 250.669 225.016 252.625H230.155C229.925 248.087 226.486 245.108 221.36 245.108C215.402 245.108 211.721 249.237 211.721 255.259C211.721 261.229 215.338 265.384 221.385 265.384ZM242.514 265.384C248.472 265.384 252.179 261.305 252.179 255.259C252.179 249.173 248.472 245.108 242.514 245.108C236.557 245.108 232.849 249.173 232.849 255.259C232.849 261.305 236.557 265.384 242.514 265.384ZM242.54 261.165C239.791 261.165 238.385 258.646 238.385 255.22C238.385 251.794 239.791 249.263 242.54 249.263C245.237 249.263 246.643 251.794 246.643 255.22C246.643 258.646 245.237 261.165 242.54 261.165ZM273.359 245.364H267.593L263.528 259.413H263.324L259.245 245.364H253.493L260.358 265H266.494L273.359 245.364ZM284.427 265.384C289.285 265.384 292.558 263.018 293.325 259.375L288.288 259.043C287.738 260.538 286.332 261.318 284.516 261.318C281.793 261.318 280.067 259.516 280.067 256.588V256.575H293.44V255.08C293.44 248.406 289.4 245.108 284.21 245.108C278.431 245.108 274.685 249.212 274.685 255.271C274.685 261.497 278.38 265.384 284.427 265.384ZM280.067 253.2C280.183 250.963 281.883 249.173 284.299 249.173C286.664 249.173 288.3 250.861 288.313 253.2H280.067ZM296.994 265H302.44V253.891C302.44 251.474 304.204 249.812 306.607 249.812C307.362 249.812 308.397 249.94 308.908 250.107V245.274C308.423 245.159 307.745 245.082 307.195 245.082C304.996 245.082 303.194 246.361 302.478 248.79H302.273V245.364H296.994V265ZM319.759 265.384C324.617 265.384 327.89 263.018 328.657 259.375L323.62 259.043C323.07 260.538 321.664 261.318 319.848 261.318C317.125 261.318 315.4 259.516 315.4 256.588V256.575H328.772V255.08C328.772 248.406 324.732 245.108 319.542 245.108C313.763 245.108 310.017 249.212 310.017 255.271C310.017 261.497 313.712 265.384 319.759 265.384ZM315.4 253.2C315.515 250.963 317.215 249.173 319.631 249.173C321.996 249.173 323.632 250.861 323.645 253.2H315.4ZM339.561 265.32C342.732 265.32 344.381 263.491 345.135 261.855H345.365V265H350.735V238.818H345.301V248.662H345.135C344.407 247.064 342.834 245.108 339.549 245.108C335.24 245.108 331.597 248.457 331.597 255.207C331.597 261.778 335.087 265.32 339.561 265.32ZM341.287 260.986C338.615 260.986 337.158 258.608 337.158 255.182C337.158 251.781 338.59 249.442 341.287 249.442C343.934 249.442 345.417 251.679 345.417 255.182C345.417 258.685 343.908 260.986 341.287 260.986ZM358.396 265.332C360.032 265.332 361.451 263.964 361.464 262.264C361.451 260.589 360.032 259.222 358.396 259.222C356.708 259.222 355.315 260.589 355.327 262.264C355.315 263.964 356.708 265.332 358.396 265.332Z" fill="#B8B8B8"/>
</svg>
